PathFileType	4	(X/Y/Z)	/Users/itak/Documents/Research/Walk-IL/dataset/trc/00196_00008.trc
DataRate	CameraRate	NumFrames	NumMarkers	Units	OrigDataRate	OrigDataStartFrame	OrigNumFrames
100.000000	100.000000	4	53	mm	100.000000	103	826
Frame#	Time	RPSI			LPSI			L3			STRN			T10			C7			CLAV			RBAK			LBAK			LSHO			LUPA			LAEL			LAOL			LWTS			LWPS			LFRA			LIFD			LHPS			LHTS			RSHO			RUPA			RAEL			RAOL			RWTS			RWPS			RFRA			RIFD			RHTS			RHPS			RBHD			LFHD			RFHD			LBHD			LHIP			RHIP			RASI			LASI			LKNE			LTHI			LANK			LTIP			LTOE			LMT1			LMT5			LHEE			RKNE			RTHI			RANK			RTIP			RTOE			RMT1			RMT5			RHEE			
		X1	Y1	Z1	X2	Y2	Z2	X3	Y3	Z3	X4	Y4	Z4	X5	Y5	Z5	X6	Y6	Z6	X7	Y7	Z7	X8	Y8	Z8	X9	Y9	Z9	X10	Y10	Z10	X11	Y11	Z11	X12	Y12	Z12	X13	Y13	Z13	X14	Y14	Z14	X15	Y15	Z15	X16	Y16	Z16	X17	Y17	Z17	X18	Y18	Z18	X19	Y19	Z19	X20	Y20	Z20	X21	Y21	Z21	X22	Y22	Z22	X23	Y23	Z23	X24	Y24	Z24	X25	Y25	Z25	X26	Y26	Z26	X27	Y27	Z27	X28	Y28	Z28	X29	Y29	Z29	X30	Y30	Z30	X31	Y31	Z31	X32	Y32	Z32	X33	Y33	Z33	X34	Y34	Z34	X35	Y35	Z35	X36	Y36	Z36	X37	Y37	Z37	X38	Y38	Z38	X39	Y39	Z39	X40	Y40	Z40	X41	Y41	Z41	X42	Y42	Z42	X43	Y43	Z43	X44	Y44	Z44	X45	Y45	Z45	X46	Y46	Z46	X47	Y47	Z47	X48	Y48	Z48	X49	Y49	Z49	X50	Y50	Z50	X51	Y51	Z51	X52	Y52	Z52	X53	Y53	Z53	

104	1.03	368.7898559570312	1054.465209960938	987.102294921875	334.2765502929688	1051.560913085938	1105.812255859375	352.2987670898438	1090.7138671875	1044.845458984375	104.3603820800781	1297.700561523438	989.9150390625	384.9989318847656	1250.102172851562	1065.440551757812	314.9615783691406	1517.805786132812	1071.237060546875	126.0284881591797	1411.399658203125	1010.843933105469	412.2232360839844	1348.084228515625	977.2154541015625	296.6527099609375	1488.378784179688	1168.187255859375	204.1159820556641	1471.034423828125	1223.409912109375	221.6474761962891	1337.761596679688	1300.090942382812	197.6434173583984	1120.44580078125	1313.126220703125	262.6363830566406	1095.978637695312	1256.037109375	8.195987701416016	1018.195678710938	1175.3623046875	36.88144683837891	942.3423461914062	1219.651123046875	127.5952224731445	1033.214111328125	1285.4892578125	-69.67166900634766	889.8646240234375	1058.076049804688	-2.598721504211426	903.17578125	1173.784423828125	-47.35959243774414	957.2505493164062	1149.72314453125	301.0573425292969	1503.293090820312	878.4010620117188	337.58984375	1439.4970703125	813.2691650390625	351.1655578613281	1145.611206054688	739.3873901367188	337.9168090820312	1139.42578125	837.9133911132812	95.95658874511719	1059.730834960938	751.21044921875	140.6881561279297	983.826416015625	738.030029296875	287.8832092285156	1088.641845703125	725.0433959960938	-36.88361358642578	940.85888671875	825.2067260742188	12.31299018859863	1001.203186035156	760.525634765625	65.80496215820312	941.441162109375	753.0702514648438	281.3890380859375	1672.885131835938	1059.671508789062	81.74287414550781	1729.206176757812	992.832275390625	193.3777160644531	1741.204833984375	925.86572265625	169.0039978027344	1665.652954101562	1138.701538085938	201.2512054443359	991.453857421875	1188.665771484375	248.1308135986328	1020.150207519531	823.6844482421875	160.8108825683594	1046.318969726562	856.210205078125	94.01376342773438	1028.781616210938	1105.510864257812	216.8953552246094	500.3101501464844	1155.74658203125	198.5020141601562	642.9089965820312	1180.147583007812	322.4770812988281	44.91389465332031	1186.879150390625	264.9627990722656	280.74365234375	1183.364868164062	106.0169219970703	43.72035217285156	1132.511596679688	162.6790924072266	46.15827178955078	1091.935424804688	210.4551544189453	36.5440559387207	1212.816162109375	381.192626953125	44.11125946044922	1124.315063476562	241.0637512207031	518.5820922851562	824.8472290039062	204.7853393554688	790.548828125	793.2427978515625	356.8357849121094	43.22853469848633	830.8510131835938	234.3842163085938	397.5444641113281	835.7989501953125	132.5525665283203	42.55006790161133	809.6843872070312	176.5343170166016	40.01008224487305	867.4577026367188	255.9788208007812	41.64883041381836	769.984619140625	392.5324401855469	37.83389663696289	907.54150390625	
105	1.04	368.9940795898438	1054.57080078125	987.1367797851562	334.4448852539062	1051.720458984375	1105.860473632812	352.4215393066406	1090.812377929688	1044.885986328125	104.4556274414062	1297.636474609375	989.7265625	385.0195922851562	1250.22705078125	1065.489868164062	314.8710327148438	1517.900268554688	1071.17578125	126.0042724609375	1411.379028320312	1010.727844238281	412.2332153320312	1348.21875	977.2611083984375	296.4931030273438	1488.49755859375	1168.1376953125	203.87646484375	1471.218627929688	1223.299682617188	221.2885131835938	1337.920532226562	1299.973999023438	197.2078094482422	1120.5126953125	1312.989135742188	262.2731018066406	1096.308837890625	1256.148681640625	9.14919376373291	1014.273498535156	1176.042358398438	39.92346572875977	939.8280639648438	1220.6025390625	128.1808166503906	1032.095581054688	1286.076416015625	-67.51314544677734	883.0360717773438	1060.805297851562	-0.1690474599599838	899.7012329101562	1176.41796875	-45.62560653686523	953.0534057617188	1151.458862304688	301.0497741699219	1503.312377929688	878.305908203125	337.6387023925781	1439.519287109375	813.2239990234375	351.4165954589844	1145.749755859375	739.2552490234375	338.3058166503906	1139.508422851562	837.7841186523438	96.99411010742188	1056.85546875	751.1069946289062	142.8847045898438	981.601318359375	737.712646484375	288.7608947753906	1088.209594726562	724.892822265625	-34.06175231933594	935.6961669921875	824.6714477539062	14.25687122344971	997.128662109375	760.1131591796875	68.65279388427734	938.2083740234375	752.5406494140625	281.2037048339844	1673.153564453125	1059.196899414062	81.29201507568359	1728.956298828125	992.8695678710938	192.6024169921875	1741.144165039062	925.5811767578125	169.143310546875	1665.81201171875	1138.550170898438	201.4054870605469	991.51220703125	1188.7275390625	248.7903289794922	1020.181579589844	823.4835205078125	161.0379028320312	1045.9921875	856.36376953125	94.22716522216797	1028.749389648438	1105.45947265625	217.1235504150391	500.2966918945312	1155.78857421875	198.7199249267578	642.9281005859375	1180.181762695312	322.4913330078125	44.90865325927734	1186.899047851562	265.1175537109375	280.774169921875	1183.384887695312	106.0050659179688	43.70312881469727	1132.507446289062	162.6749420166016	46.16032409667969	1091.930419921875	210.4724578857422	36.50201034545898	1212.76171875	381.1924743652344	44.07910919189453	1124.349487304688	241.4708251953125	518.6088256835938	824.9363403320312	205.2462310791016	790.5770874023438	793.303955078125	356.8453674316406	43.18053817749023	830.8181762695312	235.16015625	397.4046325683594	836.4573974609375	132.5609283447266	42.55514526367188	809.6763916015625	176.5705871582031	40.0366325378418	867.4375	256.0098876953125	41.64250946044922	769.9490966796875	392.5640563964844	37.76522064208984	907.507080078125	
106	1.05	369.1873474121094	1054.650268554688	987.1868896484375	334.5962524414062	1051.888793945312	1105.907836914062	352.5287780761719	1090.927368164062	1044.954711914062	104.559211730957	1297.562133789062	989.5562744140625	385.03857421875	1250.35888671875	1065.550903320312	314.7750549316406	1517.990234375	1071.1298828125	125.9789886474609	1411.360229492188	1010.6044921875	412.224365234375	1348.354736328125	977.3239135742188	296.3187866210938	1488.612182617188	1168.092407226562	203.6259002685547	1471.41796875	1223.1826171875	220.9386138916016	1338.066162109375	1299.8427734375	196.7862243652344	1120.595581054688	1312.8349609375	261.9564208984375	1096.665893554688	1256.291748046875	10.25106525421143	1010.287780761719	1176.68994140625	43.26572418212891	937.140380859375	1221.525756835938	128.8025512695312	1031.003540039062	1286.742797851562	-65.45845031738281	876.3576049804688	1063.671020507812	2.010879755020142	896.46142578125	1179.071533203125	-43.70058059692383	949.224365234375	1153.31494140625	301.0457458496094	1503.335571289062	878.22119140625	337.6972961425781	1439.548095703125	813.1875610351562	351.6375427246094	1145.888427734375	739.1560668945312	338.7249755859375	1139.593505859375	837.6634521484375	98.08278656005859	1053.914794921875	751.0669555664062	145.0948028564453	979.3713989257812	737.3662109375	289.4941101074219	1087.797241210938	724.7314453125	-30.87085914611816	930.3665161132812	824.0188598632812	16.20008277893066	993.0031127929688	759.7626342773438	71.57109832763672	934.9365844726562	751.9950561523438	280.9947814941406	1673.482543945312	1058.605346679688	80.74240875244141	1728.65478515625	992.9842529296875	191.6477203369141	1741.077392578125	925.2693481445312	169.3891906738281	1666.033447265625	1138.397705078125	201.5883178710938	991.5892333984375	1188.805541992188	249.3871459960938	1020.274475097656	823.2447509765625	161.0996246337891	1046.137573242188	856.34814453125	94.42472839355469	1028.75390625	1105.471069335938	217.2603759765625	500.3234558105469	1155.800170898438	198.8932342529297	642.935791015625	1180.239868164062	322.4716186523438	44.92033004760742	1186.869384765625	265.2109375	280.7828979492188	1183.382446289062	106.0581588745117	43.7304573059082	1132.554077148438	162.6736602783203	46.15987777709961	1091.929809570312	210.4999237060547	36.39629745483398	1212.62744140625	381.2056274414062	44.07059860229492	1124.345336914062	241.9590454101562	518.662353515625	824.9965209960938	205.7570648193359	790.6194458007812	793.3468627929688	356.8685913085938	43.1308479309082	830.7672119140625	235.7040100097656	397.4640197753906	836.4970703125	132.5973663330078	42.59864044189453	809.6476440429688	176.6231842041016	40.06215667724609	867.4161376953125	256.0491638183594	41.64874649047852	769.9224243164062	392.5897216796875	37.67392349243164	907.4727172851562	
107	1.06	369.3532409667969	1054.700439453125	987.2525024414062	334.6953430175781	1052.078369140625	1105.972045898438	352.6015319824219	1091.062255859375	1045.048461914062	104.6692276000977	1297.505249023438	989.4071655273438	385.0485534667969	1250.496826171875	1065.6298828125	314.6739501953125	1518.077270507812	1071.102661132812	125.987434387207	1411.3662109375	1010.476989746094	412.2031555175781	1348.4794921875	977.4028930664062	296.1320495605469	1488.721801757812	1168.050659179688	203.3712921142578	1471.617919921875	1223.063354492188	220.5864105224609	1338.194213867188	1299.709716796875	196.3672332763672	1120.69775390625	1312.677734375	261.6578979492188	1096.974243164062	1256.443725585938	11.52812767028809	1006.1865234375	1177.380004882812	46.38693618774414	933.8878784179688	1223.009765625	129.3770141601562	1029.98291015625	1287.474243164062	-62.83596038818359	869.53271484375	1066.57080078125	3.862237691879272	893.3451538085938	1181.447021484375	-41.61686325073242	945.0335693359375	1155.12255859375	301.0588073730469	1503.36279296875	878.1552124023438	337.7713317871094	1439.582763671875	813.1633911132812	351.8267517089844	1146.024658203125	739.0987548828125	339.1245422363281	1139.679565429688	837.5560302734375	99.33079528808594	1050.929809570312	751.1187744140625	147.3432159423828	977.1431274414062	736.9810180664062	290.1029663085938	1087.386840820312	724.5711669921875	-27.55302619934082	925.0733032226562	823.2139282226562	18.26563453674316	988.8025512695312	759.5198974609375	74.55336761474609	931.6325073242188	751.4254150390625	280.7701416015625	1673.8916015625	1057.875	80.05952453613281	1728.307861328125	993.2139282226562	190.4985198974609	1740.988891601562	924.9207763671875	169.7807312011719	1666.3017578125	1138.229736328125	201.7562561035156	991.68505859375	1188.893188476562	249.8614349365234	1020.420471191406	822.9928588867188	161.2447509765625	1046.335205078125	856.2531127929688	94.60121154785156	1028.795654296875	1105.51953125	217.2981567382812	500.3463745117188	1155.8017578125	199.0107727050781	642.9429321289062	1180.306274414062	322.4534606933594	44.92024612426758	1186.80859375	265.2456665039062	280.7648315429688	1183.352294921875	106.0942535400391	43.74078750610352	1132.581176757812	162.6795349121094	46.1603889465332	1091.93603515625	210.5259704589844	36.36777877807617	1212.557739257812	381.2098693847656	44.08132553100586	1124.319458007812	242.5006713867188	518.723876953125	825.0572509765625	206.2460174560547	790.6670532226562	793.3757934570312	356.9013977050781	43.06364059448242	830.7092895507812	236.1723022460938	397.6201171875	836.3125610351562	132.6082305908203	42.61650466918945	809.6429443359375	176.6593780517578	40.09164047241211	867.3890380859375	256.0888366699219	41.64834213256836	769.8751220703125	392.6325073242188	37.57886505126953	907.4392700195312	
